<?xml version="1.0" encoding="UTF-8"?>
<svg id="Layer_2" xmlns="http://www.w3.org/2000/svg" viewBox="0 0 377.08 486.12">
  <g id="Layer_1-2" data-name="Layer_1">
    <path d="M354.98,0c-19.76,47.57-61.69,53.22-100.79,60.07-39.11,6.85-67.23,41.83-67.23,41.83,1.21-13.61,29.33-48.08,29.33-48.08-92.83,11.49-101.3,96.16-101.3,96.16-3.02-51.4,14.21-72.87,14.21-72.87C35.16,121.25,53.81,205.22,53.81,205.22c-10.58-21.77-12.4-56.85-12.4-56.85-61.08,72.27-14.82,141.56-14.82,141.56C9.66,273.3,1.02,247.88,1.02,247.88c-10.28,110.07,60.68,163.99,60.68,163.99.71.56.48-31.27.78-34.82s3.5-5.59,3.5-5.59c-16.93-47.37-4.61-95.34-4.5-97.23.11-1.89-1.11-2.99-5.34-10.85s-22.38-43.34-22.38-43.34c9.68,5.64,31.15,44,31.15,44,6.5-26.61,25.7-58.09,25.7-58.09-9.07-34.96-2.12-56.21-2.12-56.21-.71,28.12,7.94,47.35,7.94,47.35,26.21-39.91,74.99-68.34,74.99-68.34,6.45-21.37,14.11-22.58,14.11-22.58-6.05,6.05-8.67,21.57-8.67,21.57,2.42-1.21,24.59-9.88,77.81-21.57,53.22-11.69,76.6-46.57,76.6-46.57,0,0-9.88,43.64-80.84,52.92-70.96,9.27-132.14,54.63-163.89,120.85-31.75,66.22-14.11,123.72-14.11,123.72,0,0-.05-16.98,0-24.14.05-7.16,8.62-8.96,8.62-8.96l.19-25.54c6.45-14.62,18.45-14.62,18.45-14.62,16.53.91,18.55,16.13,18.55,16.13v24.09c3.93.4,6.75,5.64,6.75,5.64,29.63-5.64,36.08-15.12,36.08-15.12-29.03.2-33.87-7.26-33.87-7.26,49.19,4.64,82.15-38.5,82.15-38.5-24.8,4.64-47.57-.2-47.57-.2,19.35-6.45,37.09-17.94,53.02-30.44,15.93-12.5,32.3-34.57,32.3-34.57-22.53.91-39.01-3.93-63.2-9.68s-55.34,2.87-55.34,2.87c23.59-16.48,61.38-9.37,80.13-6.5,18.75,2.87,25.93,1.54,25.93,1.54-8.39-2.27-18.75-13.53-18.75-13.53,66.12,41.93,121.25-13.3,121.25-13.3-22.17,6.95-48.58.3-48.58.3C404.67,131.84,354.98,0,354.98,0ZM172.12,229.66s-37.39,4.92-74.46,27.06c0,0,19.73-28.88,74.46-27.06Z"/>
    <path d="M112.14,296.17c-3.13-4.09-13.19-14.44-25.97.47-.54.63-.82,1.45-.82,2.28v25.72h27.82v-25.42c0-1.1-.35-2.18-1.02-3.05ZM98.35,295.77c-3.33,2.8-6.27,2.8-6.43,5.9s-.3,14.36-.3,14.36c0,0-.76,4.01-3.78,1.59v-16.33s.3-5.82,9.3-7.86c0,0,4.54-.45,1.21,2.34Z"/>
    <path d="M116.56,330.31h-34.77c-2.94,0-5.33,2.39-5.33,5.33v29.14h45.43v-29.14c0-2.94-2.39-5.33-5.33-5.33ZM85.9,336.16s-.89,7.56-.56,17.99c0,0-2.09,4.56-2.74.68-.66-3.88-.91-15.27-.66-16.83s2.22-6.05,3.63-4.23c0,0,.81,1.06.33,2.39Z"/>
    <path d="M122.44,368.99h-43.88c-6.24,0-11.3,5.06-11.3,11.3v100.19c0,3.11,2.52,5.63,5.63,5.63h54.35c3.11,0,5.63-2.52,5.63-5.63v-101.06c0-5.76-4.67-10.43-10.43-10.43ZM81.21,376.33c-5.11,3.04-4.76,4.86-4.76,4.86l1.08,31.65c-.6,3.33-5.04,4.74-5.04,4.74v-36.55c0-2.27.99-4.43,2.7-5.92.82-.72,1.86-1.56,3.14-2.48,1.95-1.41,3.08-1,3.74-.12.93,1.23.45,3.03-.87,3.82Z"/>
    <path d="M136.53,380.79s27.01-27.01,65.11-1.21c0,0-24.59-2.23-35.48,15.06,0,0,20.56-10.64,42.94,0,22.38,10.64,99.48,19.11,141.41-8.31,0,0-76.3,120.45-213.99,71.46v-52.92s54.43,45.36,138.19,19.65c0,0-30.44,8.47-77.51-2.12,0,0,7.36-14.51,27.01-14.51,0,0-23.89-5.14-36.59,12.4,0,0-29.03-6.35-51.1-24.19v-15.32Z"/>
    <g>
      <path d="M312.21,260.26c-31.04-1.97-46.01,20.34-49.94,28.59s-9.37,21.24-14.51,40.95c-5.14,19.71-23.89,47.28-40.37,55.27,0,0,5.64,1.81,11.29,4.03,5.64,2.22,49.09,22.17,112.23,0,0,0,1.76-27.28-1.86-44.23s.91-27.63,4.76-31.79c3.86-4.16,8.84-11.49,9.22-16.25.38-4.76.23-34.6-30.82-36.56ZM320.35,306.62c-7.73,0-14-6.27-14-14s6.27-14,14-14,14,6.27,14,14-6.27,14-14,14Z"/>
      <path d="M320.35,282.06c-5.83,0-10.56,4.73-10.56,10.56s4.73,10.56,10.56,10.56,10.56-4.73,10.56-10.56-4.73-10.56-10.56-10.56ZM314.84,292.09c-1.45,0-2.63-1.18-2.63-2.63s1.18-2.63,2.63-2.63,2.63,1.18,2.63,2.63-1.18,2.63-2.63,2.63Z"/>
    </g>
    <path d="M361.93,285.71s-4.21-3.33-10.66-3.65c0,0-1.66-.08-2.62-1.44s-7.64-18.75-25.07-23.59c-17.44-4.84-30.84,2.62-32.56,2.62s-4.75,1.74-15.78-6.43c-11.03-8.16-12.09-17.03-11.64-21.87s13.3-2.12,19.81,3.33c0,0-6.85-18.09.71-20.71s19.55,13.51,19.55,13.51c0,0,.91.5.81-2.92s-.81-20.36,5.54-23.28,25.7,12.5,17.94,37.39c0,0,2.82.3,6.85-6.85,4.03-7.16,6.08-9.78,8.28-9.37s15.81,6.55,1.6,28.32c0,0-1.21,2.77,2.72,1.11s8.16-6.55,11.49-4.23c3.33,2.32,6.02,9.15-2.12,21.07,0,0-2.02.2-1.51,2.92s7.16,10.53,6.65,14.09Z"/>
    <path d="M348.8,286.82s-.1,12.47-1.01,17.31c0,0,21.57,1.11,29.13,14.01,0,0,4.03-25.85-28.12-31.32Z"/>
    <path d="M343.96,308.97s12.9,1.11,19.86,4.03c0,0-13,1.92-13,3.83s8.52,14.26,8.97,22.73c.45,8.47.76,21.92-19.5,15.27,0,0-7.26-4.54-8.01-11.19-.76-6.65-3.23-20.06,11.69-34.67Z"/>
  </g>
</svg>