<?xml version="1.0" encoding="UTF-8"?>
<svg xmlns="http://www.w3.org/2000/svg" version="1.1" viewBox="0 0 377.1 486.1">
  <defs>
    <style>
      .cls-1 {
        fill: #a0a0a0;
      }
    </style>
  </defs>
  <!-- Generator: Adobe Illustrator 28.6.0, SVG Export Plug-In . SVG Version: 1.2.0 Build 709)  -->
  <g>
    <g id="Layer_2">
      <g id="Layer_1-2">
        <path class="cls-1" d="M355,0c-19.8,47.6-61.7,53.2-100.8,60.1-39.1,6.8-67.2,41.8-67.2,41.8,1.2-13.6,29.3-48.1,29.3-48.1-92.8,11.5-101.3,96.2-101.3,96.2-3-51.4,14.2-72.9,14.2-72.9C35.2,121.3,53.8,205.2,53.8,205.2c-10.6-21.8-12.4-56.9-12.4-56.9-61.1,72.3-14.8,141.6-14.8,141.6C9.7,273.3,1,247.9,1,247.9c-10.3,110.1,60.7,164,60.7,164,.7.6.5-31.3.8-34.8s3.5-5.6,3.5-5.6c-16.9-47.4-4.6-95.3-4.5-97.2s-1.1-3-5.3-10.9-22.4-43.3-22.4-43.3c9.7,5.6,31.2,44,31.2,44,6.5-26.6,25.7-58.1,25.7-58.1-9.1-35-2.1-56.2-2.1-56.2-.7,28.1,7.9,47.4,7.9,47.4,26.2-39.9,75-68.3,75-68.3,6.4-21.4,14.1-22.6,14.1-22.6-6.1,6.1-8.7,21.6-8.7,21.6,2.4-1.2,24.6-9.9,77.8-21.6,53.2-11.7,76.6-46.6,76.6-46.6,0,0-9.9,43.6-80.8,52.9-71,9.3-132.1,54.6-163.9,120.8s-14.1,123.7-14.1,123.7c0,0,0-17,0-24.1,0-7.2,8.6-9,8.6-9l.2-25.5c6.4-14.6,18.5-14.6,18.5-14.6,16.5.9,18.6,16.1,18.6,16.1v24.1c3.9.4,6.8,5.6,6.8,5.6,29.6-5.6,36.1-15.1,36.1-15.1-29,.2-33.9-7.3-33.9-7.3,49.2,4.6,82.1-38.5,82.1-38.5-24.8,4.6-47.6-.2-47.6-.2,19.4-6.5,37.1-17.9,53-30.4s32.3-34.6,32.3-34.6c-22.5.9-39-3.9-63.2-9.7s-55.3,2.9-55.3,2.9c23.6-16.5,61.4-9.4,80.1-6.5,18.8,2.9,25.9,1.5,25.9,1.5-8.4-2.3-18.8-13.5-18.8-13.5,66.1,41.9,121.2-13.3,121.2-13.3-22.2,6.9-48.6.3-48.6.3C404.7,131.8,355,0,355,0ZM172.1,229.7s-37.4,4.9-74.5,27.1c0,0,19.7-28.9,74.5-27.1Z"/>
        <path class="cls-1" d="M112.1,296.2c-3.1-4.1-13.2-14.4-26,.5-.5.6-.8,1.5-.8,2.3v25.7h27.8v-25.4c0-1.1-.3-2.2-1-3h0ZM98.3,295.8c-3.3,2.8-6.3,2.8-6.4,5.9s-.3,14.4-.3,14.4c0,0-.8,4-3.8,1.6v-16.3s.3-5.8,9.3-7.9c0,0,4.5-.5,1.2,2.3Z"/>
        <path class="cls-1" d="M116.6,330.3h-34.8c-2.9,0-5.3,2.4-5.3,5.3v29.1h45.4v-29.1c0-2.9-2.4-5.3-5.3-5.3h0ZM85.9,336.2s-.9,7.6-.6,18c0,0-2.1,4.6-2.7.7-.7-3.9-.9-15.3-.7-16.8s2.2-6,3.6-4.2c0,0,.8,1.1.3,2.4Z"/>
        <path class="cls-1" d="M122.4,369h-43.9c-6.2,0-11.3,5.1-11.3,11.3v100.2c0,3.1,2.5,5.6,5.6,5.6h54.3c3.1,0,5.6-2.5,5.6-5.6v-101.1c0-5.8-4.7-10.4-10.4-10.4ZM81.2,376.3c-5.1,3-4.8,4.9-4.8,4.9l1.1,31.6c-.6,3.3-5,4.7-5,4.7v-36.5c0-2.3,1-4.4,2.7-5.9.8-.7,1.9-1.6,3.1-2.5,1.9-1.4,3.1-1,3.7-.1.9,1.2.4,3-.9,3.8h0Z"/>
        <path class="cls-1" d="M136.5,380.8s27-27,65.1-1.2c0,0-24.6-2.2-35.5,15.1,0,0,20.6-10.6,42.9,0s99.5,19.1,141.4-8.3c0,0-76.3,120.5-214,71.5v-52.9s54.4,45.4,138.2,19.6c0,0-30.4,8.5-77.5-2.1,0,0,7.4-14.5,27-14.5,0,0-23.9-5.1-36.6,12.4,0,0-29-6.4-51.1-24.2v-15.3h0Z"/>
        <g>
          <path class="cls-1" d="M312.2,260.3c-31-2-46,20.3-49.9,28.6s-9.4,21.2-14.5,41c-5.1,19.7-23.9,47.3-40.4,55.3,0,0,5.6,1.8,11.3,4,5.6,2.2,49.1,22.2,112.2,0,0,0,1.8-27.3-1.9-44.2s.9-27.6,4.8-31.8c3.9-4.2,8.8-11.5,9.2-16.2s.2-34.6-30.8-36.6h0ZM320.4,306.6c-7.7,0-14-6.3-14-14s6.3-14,14-14,14,6.3,14,14-6.3,14-14,14Z"/>
          <path class="cls-1" d="M320.4,282.1c-5.8,0-10.6,4.7-10.6,10.6s4.7,10.6,10.6,10.6,10.6-4.7,10.6-10.6-4.7-10.6-10.6-10.6ZM314.8,292.1c-1.5,0-2.6-1.2-2.6-2.6s1.2-2.6,2.6-2.6,2.6,1.2,2.6,2.6-1.2,2.6-2.6,2.6Z"/>
        </g>
        <path class="cls-1" d="M361.9,285.7s-4.2-3.3-10.7-3.6c0,0-1.7,0-2.6-1.4s-7.6-18.8-25.1-23.6c-17.4-4.8-30.8,2.6-32.6,2.6s-4.8,1.7-15.8-6.4c-11-8.2-12.1-17-11.6-21.9s13.3-2.1,19.8,3.3c0,0-6.9-18.1.7-20.7s19.5,13.5,19.5,13.5c0,0,.9.5.8-2.9s-.8-20.4,5.5-23.3,25.7,12.5,17.9,37.4c0,0,2.8.3,6.9-6.9,4-7.2,6.1-9.8,8.3-9.4s15.8,6.6,1.6,28.3c0,0-1.2,2.8,2.7,1.1s8.2-6.6,11.5-4.2,6,9.1-2.1,21.1c0,0-2,.2-1.5,2.9s7.2,10.5,6.6,14.1h0Z"/>
        <path class="cls-1" d="M348.8,286.8s-.1,12.5-1,17.3c0,0,21.6,1.1,29.1,14,0,0,4-25.9-28.1-31.3Z"/>
        <path class="cls-1" d="M344,309s12.9,1.1,19.9,4c0,0-13,1.9-13,3.8s8.5,14.3,9,22.7.8,21.9-19.5,15.3c0,0-7.3-4.5-8-11.2-.8-6.6-3.2-20.1,11.7-34.7h0Z"/>
      </g>
    </g>
  </g>
</svg>